<svg width="19" height="19" viewBox="0 0 19 19" fill="none" xmlns="http://www.w3.org/2000/svg">
<g clip-path="url(#clip0_3115_85)">
<path fill-rule="evenodd" clip-rule="evenodd" d="M9.5 19C14.7467 19 19 14.7467 19 9.5C19 4.25329 14.7467 0 9.5 0C4.25329 0 0 4.25329 0 9.5C0 14.7467 4.25329 19 9.5 19Z" fill="#0055FF"/>
<path d="M13.4435 4.69194L13.1355 4.47815L12.9216 4.78609L7.96056 11.9297L4.82989 9.37378L4.53933 9.13656L4.30219 9.42718L3.70945 10.1536L3.47243 10.4441L3.76284 10.6812L7.9925 14.1343L8.30647 14.3907L8.53766 14.0577L14.308 5.74864L14.522 5.44056L14.2138 5.22668L13.4435 4.69194Z" fill="white" stroke="#EFEFEF" stroke-width="0.75"/>
</g>
<defs>
<clipPath id="clip0_3115_85">
<rect width="19" height="19" fill="white"/>
</clipPath>
</defs>
</svg>
