<svg width="58" height="57" viewBox="0 0 58 57" fill="none" xmlns="http://www.w3.org/2000/svg">
<rect x="0.693359" y="0.304688" width="56.6202" height="55.7623" rx="10" fill="#F6F8FF"/>
<path d="M36.3489 20.8125C38.1196 20.4193 40.4259 18.6618 40.7769 17.7963C40.9827 17.2896 39.9562 16.498 39.6818 16.1787C39.0537 15.4503 39.307 15.0915 39.5498 14.2233C39.8269 13.2363 39.1698 12.1465 38.2383 11.719C37.3068 11.2915 36.1932 11.4261 35.2564 11.843C34.3196 12.26 33.52 12.9302 32.7363 13.5899C32.1636 13.2284 31.2506 11.6319 29.7728 12.669C28.7516 13.3841 28.6592 14.941 28.7912 16.184C29.0999 19.0524 29.8071 20.5407 31.1397 20.9418C32.8233 21.4485 34.6864 21.182 36.3489 20.8125Z" fill="#577CFF"/>
<path d="M39.2261 12.5615C39.0018 16.4275 35.2308 18.9924 33.4417 20.1219L34.6028 21.1194C34.6028 21.1194 35.339 21.1352 36.3471 20.8133C38.0755 20.2644 40.6009 18.7127 40.7751 17.797C41.0311 16.4644 39.6641 16.7547 39.3554 15.7018C39.1944 15.145 40.1391 14.0921 39.2261 12.5615ZM32.7397 13.5933C32.7397 13.5933 32.0668 12.9046 31.5681 12.5906C31.32 13.0576 31.1432 13.5643 31.0561 14.0868C30.9005 15.0051 31.0561 16.3087 31.423 17.2798C31.481 17.4302 31.6974 17.4065 31.7211 17.2482C32.0378 15.1608 32.7397 13.5933 32.7397 13.5933Z" fill="#1064E2"/>
<path d="M28.0367 20.4725C28.0367 20.4725 19.8061 21.3618 16.0932 28.5079C12.3803 35.654 15.5364 39.987 18.8772 41.565C22.218 43.1431 30.636 43.6999 36.1116 42.4015C41.5873 41.1032 42.9569 38.4116 42.7009 35.8123C42.3288 32.0176 38.8033 29.6848 38.8033 29.6848C38.8033 29.6848 38.9431 24.9982 35.3068 21.9556C32.0794 19.2534 28.0367 20.4725 28.0367 20.4725Z" fill="#577CFF"/>
<path d="M31.4153 32.4976C29.6499 30.2704 27.5652 29.9722 26.8975 29.1726C26.5334 28.7372 26.3196 28.2965 26.4014 27.7503C26.4885 27.1697 27.1614 26.7686 27.6839 26.671C28.2935 26.5549 29.7475 26.6156 30.9693 27.7793C31.2596 28.0538 31.154 28.4813 31.1461 28.8639C31.125 29.6846 32.2993 30.4815 33.2493 29.7954C34.2019 29.1067 33.471 27.5735 32.8561 26.8293C32.3917 26.2673 30.7081 25.0296 28.6154 24.8343C28.027 24.7789 25.6599 24.428 24.293 27.0272C23.8998 27.774 23.7546 29.579 25.813 31.1043C26.2431 31.4236 28.4756 32.5583 29.0957 33.2946C30.1697 34.5691 29.4335 35.6907 28.5943 35.8384C26.3064 36.2395 25.0108 35.0019 24.7706 34.3237C24.5991 33.8408 24.7785 33.3183 24.5569 32.8644C24.3299 32.3973 23.8655 32.2126 23.3747 32.3683C21.7649 32.8803 22.2769 34.6404 22.9894 35.6088C23.752 36.6459 24.6888 37.2713 25.7417 37.6144C29.671 38.8942 31.5604 36.8729 31.8903 35.3925C32.1331 34.3079 32.1067 33.3684 31.4153 32.4976Z" fill="white"/>
<path d="M30.4636 23.3311C27.1202 30.4718 26.5449 39.4888 26.5449 39.4888" stroke="white" stroke-width="2.25" stroke-miterlimit="10"/>
<path d="M33.2398 18.836C35.467 19.5617 35.9604 21.5752 35.7995 22.1241C35.6068 22.768 33.1395 20.261 29.4714 20.4114C28.189 20.4642 28.561 19.6778 29.1548 19.224C29.9385 18.6249 31.2553 18.1922 33.2398 18.836Z" fill="#6D4C41"/>
<path d="M33.2398 18.836C35.467 19.5617 35.9604 21.5752 35.7995 22.1241C35.6068 22.768 33.1395 20.261 29.4714 20.4114C28.189 20.4642 28.561 19.6778 29.1548 19.224C29.9385 18.6249 31.2553 18.1922 33.2398 18.836Z" fill="#F7DECE"/>
<path d="M37.1484 25.9339C37.4282 25.7412 38.3676 26.0737 38.6315 27.913C38.7608 28.8129 38.8004 29.6837 38.8004 29.6837C38.8004 29.6837 37.692 28.6888 37.3252 27.9895C36.8634 27.1055 36.684 26.2505 37.1484 25.9339Z" fill="#1064E2"/>
</svg>
