<svg width="116" height="25" viewBox="0 0 116 25" fill="none" xmlns="http://www.w3.org/2000/svg">
<path d="M115.142 11.1192V9.09421H112.627V5.94617L112.543 5.97224L110.181 6.6949L110.134 6.70904V9.09433H106.406V7.76552C106.406 7.14678 106.545 6.67329 106.817 6.35751C107.088 6.04553 107.475 5.88692 107.969 5.88692C108.324 5.88692 108.692 5.97057 109.062 6.13553L109.155 6.17696V4.0444L109.111 4.02836C108.766 3.90428 108.297 3.8418 107.715 3.8418C106.981 3.8418 106.315 4.00141 105.734 4.31774C105.152 4.63452 104.695 5.08673 104.374 5.6617C104.055 6.23599 103.893 6.89928 103.893 7.6333V9.09421H102.142V11.1192H103.893V19.65H106.406V11.1192H110.134V16.5403C110.134 18.773 111.187 19.9045 113.264 19.9045C113.606 19.9045 113.965 19.8645 114.332 19.7862C114.705 19.7058 114.959 19.6254 115.109 19.5397L115.142 19.5201V17.4764L115.04 17.544C114.903 17.6349 114.734 17.7092 114.534 17.7644C114.334 17.8207 114.167 17.8489 114.038 17.8489C113.551 17.8489 113.191 17.7178 112.968 17.459C112.742 17.1979 112.627 16.7414 112.627 16.1027V11.1192H115.142ZM96.5285 17.8492C95.6161 17.8492 94.8968 17.5467 94.3899 16.9508C93.8799 16.3519 93.6215 15.498 93.6215 14.4131C93.6215 13.2938 93.8799 12.4178 94.3901 11.8083C94.8974 11.2028 95.6098 10.8955 96.508 10.8955C97.3796 10.8955 98.0734 11.189 98.5704 11.7683C99.0698 12.3506 99.3233 13.2197 99.3233 14.352C99.3233 15.4982 99.085 16.3787 98.6149 16.9677C98.1481 17.5523 97.4462 17.8492 96.5285 17.8492ZM96.6402 8.83993C94.8996 8.83993 93.5171 9.34995 92.5314 10.3559C91.5463 11.3619 91.0468 12.7541 91.0468 14.4941C91.0468 16.1468 91.5344 17.4762 92.496 18.4447C93.4577 19.4135 94.7665 19.9042 96.3857 19.9042C98.0729 19.9042 99.4279 19.3871 100.413 18.3673C101.398 17.3485 101.898 15.9695 101.898 14.2701C101.898 12.5916 101.429 11.2523 100.505 10.2903C99.5804 9.32779 98.2799 8.83993 96.6402 8.83993ZM86.9941 8.83993C85.8101 8.83993 84.8307 9.14278 84.0826 9.73991C83.3298 10.3406 82.948 11.1284 82.948 12.0818C82.948 12.5773 83.0304 13.0175 83.1926 13.3908C83.3558 13.7654 83.6083 14.0952 83.9438 14.372C84.2767 14.6466 84.7906 14.9342 85.4716 15.2268C86.0441 15.4624 86.4711 15.6616 86.7423 15.8187C87.0074 15.9726 87.1955 16.1273 87.3018 16.278C87.405 16.4255 87.4574 16.6273 87.4574 16.8764C87.4574 17.5856 86.9263 17.9306 85.8335 17.9306C85.4282 17.9306 84.9658 17.846 84.4594 17.6791C83.9565 17.5148 83.4819 17.2741 83.0521 16.9656L82.9478 16.8908V19.3108L82.9861 19.3286C83.3417 19.4928 83.7902 19.6312 84.3187 19.7402C84.8462 19.8492 85.3255 19.9047 85.7418 19.9047C87.0267 19.9047 88.0613 19.6004 88.8163 18.9997C89.576 18.3949 89.9611 17.5885 89.9611 16.6022C89.9611 15.8906 89.7538 15.2805 89.3452 14.7884C88.9394 14.3003 88.2352 13.8522 87.2529 13.4561C86.4703 13.142 85.9689 12.8813 85.7621 12.6811C85.5627 12.4877 85.4615 12.2143 85.4615 11.868C85.4615 11.561 85.5865 11.3151 85.843 11.1159C86.1015 10.9158 86.4614 10.814 86.9127 10.814C87.3315 10.814 87.76 10.8801 88.1862 11.0098C88.612 11.1394 88.986 11.3131 89.2982 11.5255L89.4009 11.5957V9.30005L89.3615 9.28312C89.0734 9.1596 88.6936 9.05389 88.2323 8.96813C87.773 8.88292 87.3565 8.83993 86.9941 8.83993ZM76.3952 17.8492C75.4831 17.8492 74.7635 17.5467 74.2567 16.9508C73.7466 16.3519 73.4886 15.4982 73.4886 14.4131C73.4886 13.2938 73.7469 12.4178 74.2573 11.8083C74.7641 11.2028 75.4764 10.8955 76.375 10.8955C77.2463 10.8955 77.9401 11.189 78.4372 11.7683C78.9367 12.3506 79.1901 13.2197 79.1901 14.352C79.1901 15.4982 78.9517 16.3787 78.4816 16.9677C78.0148 17.5523 77.3132 17.8492 76.3952 17.8492ZM76.5072 8.83993C74.7662 8.83993 73.3836 9.34995 72.3984 10.3559C71.4133 11.3619 70.9135 12.7541 70.9135 14.4941C70.9135 16.1475 71.4014 17.4762 72.3631 18.4447C73.3248 19.4135 74.6334 19.9042 76.2526 19.9042C77.9396 19.9042 79.2949 19.3871 80.2802 18.3673C81.2652 17.3485 81.7645 15.9695 81.7645 14.2701C81.7645 12.5916 81.2961 11.2523 80.3717 10.2903C79.4469 9.32779 78.1466 8.83993 76.5072 8.83993ZM67.098 10.9222V9.09421H64.615V19.6497H67.098V14.2502C67.098 13.332 67.3061 12.5777 67.7169 12.008C68.1225 11.4451 68.6629 11.1598 69.3227 11.1598C69.5464 11.1598 69.7975 11.1967 70.0693 11.2697C70.3384 11.3422 70.5334 11.4209 70.6483 11.5038L70.7527 11.5794V9.07617L70.7125 9.05891C70.4812 8.96067 70.1541 8.9111 69.7402 8.9111C69.1162 8.9111 68.5579 9.11159 68.0796 9.50634C67.6598 9.8533 67.3564 10.329 67.1244 10.9222H67.098ZM60.1684 8.83993C59.0293 8.83993 58.0133 9.08419 57.149 9.5657C56.283 10.0483 55.6133 10.7373 55.1576 11.6135C54.7039 12.4875 54.4736 13.5085 54.4736 14.647C54.4736 15.6444 54.6969 16.5596 55.1383 17.3663C55.58 18.1742 56.2051 18.8063 56.9963 19.2447C57.7865 19.6826 58.6997 19.9046 59.7109 19.9046C60.8909 19.9046 61.8983 19.6687 62.7061 19.2034L62.7387 19.1847V16.9099L62.6344 16.9861C62.2685 17.2526 61.8596 17.4654 61.4196 17.6186C60.9808 17.7718 60.5807 17.8492 60.2298 17.8492C59.2555 17.8492 58.4734 17.5444 57.9057 16.9433C57.3367 16.3415 57.0482 15.4964 57.0482 14.4331C57.0482 13.363 57.3491 12.4962 57.942 11.8566C58.5331 11.219 59.3167 10.8955 60.2708 10.8955C61.0869 10.8955 61.8822 11.1719 62.6346 11.7176L62.7387 11.7933V9.3964L62.7051 9.37746C62.4219 9.21896 62.0358 9.08809 61.5564 8.98885C61.079 8.88983 60.6121 8.83993 60.1684 8.83993ZM52.7635 9.09433H50.2806V19.6497H52.7635V9.09433ZM51.5474 4.59765C51.1388 4.59765 50.7823 4.73677 50.4895 5.01244C50.1955 5.2889 50.0463 5.63697 50.0463 6.04775C50.0463 6.45208 50.1937 6.7938 50.4849 7.06291C50.7743 7.33123 51.1319 7.46723 51.5475 7.46723C51.9631 7.46723 52.322 7.33123 52.6148 7.06335C52.9095 6.7938 53.059 6.45219 53.059 6.04775C53.059 5.65134 52.9136 5.30683 52.627 5.02358C52.3406 4.74089 51.9773 4.59765 51.5474 4.59765ZM45.3523 8.31553V19.6497H47.8862V4.92077H44.3791L39.9213 15.861L35.5953 4.92077H31.9453V19.6496H34.3266V8.31442H34.4083L38.9765 19.6497H40.7736L45.2705 8.31553H45.3523Z" fill="#706D6E"/>
<path d="M11.6806 11.6806H0V0H11.6806V11.6806Z" fill="#F1511B"/>
<path d="M24.5788 11.6806H12.8984V0H24.5788V11.6806Z" fill="#80CC28"/>
<path d="M11.6803 24.5809H0V12.9004H11.6803V24.5809Z" fill="#00ADEF"/>
<path d="M24.5788 24.5809H12.8984V12.9004H24.5788V24.5809Z" fill="#FBBC09"/>
</svg>
