<svg width="24" height="24" viewBox="0 0 24 24" fill="none" xmlns="http://www.w3.org/2000/svg">
<path d="M11.9992 11.9607C13.8239 11.9607 15.3031 10.4989 15.3031 8.69568C15.3031 6.89246 13.8239 5.43066 11.9992 5.43066C10.1745 5.43066 8.69531 6.89246 8.69531 8.69568C8.69531 10.4989 10.1745 11.9607 11.9992 11.9607Z" stroke="#1C274C"/>
<path d="M12 23C18.0751 23 23 18.0751 23 12C23 5.92487 18.0751 1 12 1C5.92487 1 1 5.92487 1 12C1 18.0751 5.92487 23 12 23Z" stroke="#1C274C"/>
<path d="M18.5685 20.8241C18.3934 17.6322 17.4191 15.3047 11.9995 15.3047C6.58005 15.3047 5.6058 17.6322 5.43066 20.8241" stroke="#1C274C" stroke-linecap="round"/>
</svg>
