<svg width="105" height="26" viewBox="0 0 105 26" fill="none" xmlns="http://www.w3.org/2000/svg">
<path d="M93.3712 8.46016C93.9601 8.46016 94.4448 8.15399 94.5103 7.75843L95.0917 1.18339C95.0917 0.533512 94.3303 0 93.3731 0C92.4168 0 91.6562 0.533509 91.6562 1.18351L92.2372 7.75843C92.3012 8.15387 92.7859 8.46016 93.3732 8.46016H93.3712ZM89.8177 10.5138C90.113 10.0045 90.0908 9.43204 89.7794 9.17772L84.3751 5.38672C83.8132 5.06132 82.9707 5.453 82.4926 6.28224C82.0128 7.11042 82.0978 8.03539 82.6582 8.36091L88.6424 11.1472C89.0165 11.2858 89.5265 11.019 89.8195 10.51L89.8177 10.5138ZM96.928 10.5103C97.2229 11.0193 97.7304 11.2863 98.1048 11.1475L104.089 8.36127C104.653 8.03586 104.733 7.11078 104.258 6.28259C103.777 5.45417 102.933 5.06167 102.373 5.38707L96.9681 9.17807C96.6591 9.43204 96.6361 10.005 96.9299 10.5142L96.928 10.5103ZM93.3712 16.6734C93.9601 16.6734 94.4448 16.977 94.5103 17.3729L95.0917 23.947C95.0917 24.5989 94.3303 25.1312 93.3731 25.1312C92.4168 25.1312 91.6562 24.5989 91.6562 23.947L92.2372 17.3729C92.3012 16.977 92.7859 16.6734 93.3732 16.6734H93.3712ZM96.928 14.6192C97.2229 14.1088 97.7304 13.8442 98.1048 13.9845L104.089 16.7689C104.653 17.0946 104.733 18.0205 104.258 18.8494C103.777 19.6751 102.933 20.0687 102.373 19.7438L96.9681 15.9563C96.6591 15.7003 96.6361 15.127 96.9299 14.6182H96.9275M89.8177 14.6185C90.113 15.127 90.0908 15.7003 89.7794 15.9568L84.3751 19.7441C83.8132 20.0691 82.9707 19.6755 82.4926 18.8498C82.0128 18.0209 82.0978 17.095 82.6582 16.7692L88.6424 13.9848C89.0165 13.8445 89.5265 14.1092 89.8195 14.6197H89.8177" fill="#FDBB30"/>
<path d="M59.2849 15.9445C59.2849 16.1462 59.267 16.3543 59.2117 16.5371C58.9825 17.2962 58.1966 17.9381 57.2133 17.9381C56.3935 17.9381 55.7423 17.4724 55.7423 16.4888C55.7423 14.9834 57.3992 14.5676 59.2854 14.5781L59.2849 15.9444V15.9445ZM62.2434 13.321C62.2434 10.8387 61.1827 8.65445 57.5988 8.65445C55.7591 8.65445 54.2989 9.17118 53.502 9.63173L54.0857 11.6274C54.814 11.1675 55.9749 10.7868 57.0735 10.7868C58.8914 10.7818 59.1891 11.8163 59.1891 12.4784V12.6351C55.2264 12.6293 52.7214 14.0014 52.7214 16.7966C52.7214 18.5046 53.9972 20.1043 56.215 20.1043C57.5778 20.1043 58.7192 19.5603 59.4023 18.6882H59.4697C59.4697 18.6882 59.9217 20.5817 62.4169 19.8572C62.2867 19.0698 62.2439 18.2291 62.2439 17.2183L62.2435 13.321M0.5 5.27391C0.5 5.27391 3.08955 15.8848 3.50305 17.6068C3.98542 19.6169 4.85478 20.3568 7.36009 19.8572L8.97693 13.2789C9.38692 11.6441 9.6613 10.4786 9.92547 8.81727H9.97146C10.1569 10.4962 10.42 11.6492 10.7574 13.2843C10.7574 13.2843 11.4153 16.2709 11.7528 17.8391C12.0906 19.4068 13.0309 20.3954 15.4852 19.8572L19.338 5.27344H16.2282L14.9123 11.579C14.5585 13.4137 14.2378 14.8489 13.9903 16.527H13.9463C13.7214 14.8637 13.4351 13.487 13.0757 11.699L11.7068 5.27344H8.46606L7.0009 11.537C6.58622 13.4409 6.19735 14.9776 5.951 16.5999H5.90619C5.65328 15.0723 5.31661 13.1401 4.95226 11.2981C4.95226 11.2981 4.08243 6.81778 3.77649 5.27344L0.5 5.27391ZM25.2205 15.9445C25.2205 16.1462 25.2026 16.3543 25.1465 16.5371C24.9177 17.2962 24.1313 17.9381 23.148 17.9381C22.3281 17.9381 21.6778 17.4724 21.6778 16.4888C21.6778 14.9834 23.3343 14.5676 25.2209 14.5781L25.2205 15.9444V15.9445ZM28.1786 13.321C28.1786 10.8387 27.1179 8.65445 23.5347 8.65445C21.6945 8.65445 20.2332 9.17118 19.4367 9.63173L20.0197 11.6274C20.7479 11.1675 21.9088 10.7868 23.0077 10.7868C24.8269 10.7818 25.1247 11.8163 25.1247 12.4784V12.6351C21.1603 12.6293 18.6565 14.0014 18.6565 16.7966C18.6565 18.5046 19.9316 20.1043 22.1478 20.1043C23.5124 20.1043 24.6531 19.5603 25.337 18.6882H25.4036C25.4036 18.6882 25.8569 20.5817 28.3515 19.8572C28.2211 19.0698 28.1786 18.2291 28.1786 17.2183V13.321ZM33.1156 16.7615V5.27391H30.1536V19.8577H33.1156V16.7615ZM71.8639 5.27391V16.0321C71.8639 17.516 72.1436 18.5545 72.7401 19.1901C73.2629 19.7458 74.1217 20.1055 75.1516 20.1055C76.0277 20.1055 76.8889 19.9383 77.2954 19.7876L77.2571 17.4736C76.9547 17.5475 76.6075 17.6073 76.1322 17.6073C75.1229 17.6073 74.7854 16.9607 74.7854 15.6292V11.5129H77.3647V8.72213H74.7854V5.27391H71.8639ZM64.2185 8.90185V19.8577H67.274V14.2481C67.274 13.9449 67.2923 13.6807 67.3403 13.439C67.5663 12.2634 68.4649 11.5129 69.7556 11.5129C70.1094 11.5129 70.3627 11.5513 70.6371 11.5903V8.72213C70.4068 8.67627 70.2505 8.6548 69.9641 8.6548C68.8239 8.6548 67.5266 9.39055 66.9821 10.9688H66.8996V8.90185H64.2185ZM35.1896 8.90185V19.8577H38.1665V13.4332C38.1665 13.1317 38.2019 12.8129 38.3063 12.5365C38.553 11.8897 39.155 11.1321 40.1156 11.1321C41.3174 11.1321 41.8786 12.1476 41.8786 13.6132V19.8569H44.8532V13.3541C44.8532 13.0665 44.8925 12.7197 44.9775 12.4661C45.2218 11.7299 45.8702 11.1313 46.7634 11.1313C47.9812 11.1313 48.5657 12.129 48.5657 13.8541V19.8565H51.5422V13.4035C51.5422 10.0008 49.8143 8.65375 47.8635 8.65375C47.0004 8.65375 46.3183 8.86994 45.7015 9.24791C45.1836 9.56698 44.7191 10.0191 44.3138 10.6134H44.2698C43.7994 9.43266 42.6926 8.65433 41.2503 8.65433C39.3975 8.65433 38.5647 9.59361 38.0596 10.3901H38.0153V8.9015H35.1896" fill="#1A75CF"/>
</svg>
